solid ArduinoClamp
facet normal -0.0 -1.0 -0.0
  outer loop
    vertex -0.10000000000000017 0.0 0.0
    vertex -1.9999999999999998 0.0 -3.0
    vertex -0.10000000000000017 0.0 -3.0
  endloop
endfacet
facet normal -0.0 -1.0 -0.0
  outer loop
    vertex -1.9999999999999998 0.0 -3.0
    vertex -0.10000000000000017 0.0 0.0
    vertex -1.9999999999999998 0.0 0.0
  endloop
endfacet
facet normal -0.0 -1.0 -0.0
  outer loop
    vertex 8.400000000000002 0.0 0.0
    vertex 6.500000000000002 0.0 -3.0
    vertex 8.400000000000002 0.0 -3.0
  endloop
endfacet
facet normal -0.0 -1.0 -0.0
  outer loop
    vertex 6.500000000000002 0.0 -3.0
    vertex 8.400000000000002 0.0 0.0
    vertex 6.500000000000002 0.0 0.0
  endloop
endfacet
facet normal -1.0 0.0 0.0
  outer loop
    vertex 6.500000000000002 5.799999999999999 0.0
    vertex 6.500000000000002 0.0 -3.0
    vertex 6.500000000000002 0.0 0.0
  endloop
endfacet
facet normal -1.0 0.0 0.0
  outer loop
    vertex 6.500000000000002 0.0 -3.0
    vertex 6.500000000000002 5.799999999999999 0.0
    vertex 6.500000000000002 5.799999999999999 -3.0
  endloop
endfacet
facet normal 0.0 1.0 0.0
  outer loop
    vertex -1.9999999999999998 5.799999999999999 0.0
    vertex -0.10000000000000017 5.799999999999999 -3.0
    vertex -1.9999999999999998 5.799999999999999 -3.0
  endloop
endfacet
facet normal 0.0 1.0 0.0
  outer loop
    vertex -0.10000000000000017 5.799999999999999 -3.0
    vertex -1.9999999999999998 5.799999999999999 0.0
    vertex -0.10000000000000017 5.799999999999999 0.0
  endloop
endfacet
facet normal 1.0 0.0 0.0
  outer loop
    vertex -0.10000000000000017 5.799999999999999 -3.0
    vertex -0.10000000000000017 0.0 0.0
    vertex -0.10000000000000017 0.0 -3.0
  endloop
endfacet
facet normal 1.0 0.0 0.0
  outer loop
    vertex -0.10000000000000017 0.0 0.0
    vertex -0.10000000000000017 5.799999999999999 -3.0
    vertex -0.10000000000000017 5.799999999999999 0.0
  endloop
endfacet
facet normal 1.0 0.0 0.0
  outer loop
    vertex 8.400000000000002 5.799999999999999 -3.0
    vertex 8.400000000000002 0.0 0.0
    vertex 8.400000000000002 0.0 -3.0
  endloop
endfacet
facet normal 1.0 0.0 0.0
  outer loop
    vertex 8.400000000000002 0.0 0.0
    vertex 8.400000000000002 5.799999999999999 -3.0
    vertex 8.400000000000002 5.799999999999999 0.0
  endloop
endfacet
facet normal 0.0 0.0 -1.0
  outer loop
    vertex -0.10000000000000017 5.799999999999999 -3.0
    vertex -1.9999999999999998 0.0 -3.0
    vertex -1.9999999999999998 5.799999999999999 -3.0
  endloop
endfacet
facet normal 0.0 0.0 -1.0
  outer loop
    vertex -1.9999999999999998 0.0 -3.0
    vertex -0.10000000000000017 5.799999999999999 -3.0
    vertex -0.10000000000000017 0.0 -3.0
  endloop
endfacet
facet normal 0.0 0.0 1.0
  outer loop
    vertex 8.400000000000002 0.0 0.0
    vertex 6.500000000000002 5.799999999999999 0.0
    vertex 6.500000000000002 0.0 0.0
  endloop
endfacet
facet normal 0.0 0.0 1.0
  outer loop
    vertex 6.500000000000002 5.799999999999999 0.0
    vertex 8.400000000000002 0.0 0.0
    vertex 8.400000000000002 5.799999999999999 0.0
  endloop
endfacet
facet normal -1.0 0.0 0.0
  outer loop
    vertex -1.9999999999999998 5.799999999999999 0.0
    vertex -1.9999999999999998 0.0 -3.0
    vertex -1.9999999999999998 0.0 0.0
  endloop
endfacet
facet normal -1.0 0.0 0.0
  outer loop
    vertex -1.9999999999999998 0.0 -3.0
    vertex -1.9999999999999998 5.799999999999999 0.0
    vertex -1.9999999999999998 5.799999999999999 -3.0
  endloop
endfacet
facet normal 0.0 0.0 -1.0
  outer loop
    vertex 8.400000000000002 5.799999999999999 -3.0
    vertex 6.500000000000002 0.0 -3.0
    vertex 6.500000000000002 5.799999999999999 -3.0
  endloop
endfacet
facet normal 0.0 0.0 -1.0
  outer loop
    vertex 6.500000000000002 0.0 -3.0
    vertex 8.400000000000002 5.799999999999999 -3.0
    vertex 8.400000000000002 0.0 -3.0
  endloop
endfacet
facet normal 0.0 0.0 1.0
  outer loop
    vertex -0.10000000000000017 0.0 0.0
    vertex -1.9999999999999998 5.799999999999999 0.0
    vertex -1.9999999999999998 0.0 0.0
  endloop
endfacet
facet normal 0.0 0.0 1.0
  outer loop
    vertex -1.9999999999999998 5.799999999999999 0.0
    vertex -0.10000000000000017 0.0 0.0
    vertex -0.10000000000000017 5.799999999999999 0.0
  endloop
endfacet
facet normal 0.0 1.0 0.0
  outer loop
    vertex 6.500000000000002 5.799999999999999 0.0
    vertex 8.400000000000002 5.799999999999999 -3.0
    vertex 6.500000000000002 5.799999999999999 -3.0
  endloop
endfacet
facet normal 0.0 1.0 0.0
  outer loop
    vertex 8.400000000000002 5.799999999999999 -3.0
    vertex 6.500000000000002 5.799999999999999 0.0
    vertex 8.400000000000002 5.799999999999999 0.0
  endloop
endfacet
facet normal 0.0 0.0 -1.0
  outer loop
    vertex -1.9999999999999998 5.7999999999999945 0.0
    vertex 2.068629150101524 3.931370849898476 -1.762479051592436e-16
    vertex -1.9999999999999998 0.0 0.0
  endloop
endfacet
facet normal 0.0 0.0 -1.0
  outer loop
    vertex 2.068629150101524 3.931370849898476 -1.762479051592436e-16
    vertex -1.9999999999999998 5.7999999999999945 0.0
    vertex 2.4 4.185640646055101 -1.762479051592436e-16
  endloop
endfacet
facet normal 0.0 0.0 -1.0
  outer loop
    vertex 2.4 4.185640646055101 -1.762479051592436e-16
    vertex -1.9999999999999998 5.7999999999999945 0.0
    vertex 2.785889527835967 4.3454813220625095 -1.762479051592436e-16
  endloop
endfacet
facet normal 0.0 0.0 -1.0
  outer loop
    vertex 2.785889527835967 4.3454813220625095 -1.762479051592436e-16
    vertex -1.9999999999999998 5.7999999999999945 0.0
    vertex 8.400000000000002 5.7999999999999945 0.0
  endloop
endfacet
facet normal 0.0 0.0 -1.0
  outer loop
    vertex -1.9999999999999998 0.0 0.0
    vertex 2.068629150101524 3.931370849898476 -1.762479051592436e-16
    vertex 1.8143593539448983 3.5999999999999996 -1.762479051592436e-16
  endloop
endfacet
facet normal 0.0 0.0 -1.0
  outer loop
    vertex -1.9999999999999998 0.0 0.0
    vertex 1.8143593539448983 3.5999999999999996 -1.762479051592436e-16
    vertex 1.654518677937491 3.214110472164033 -1.762479051592436e-16
  endloop
endfacet
facet normal 0.0 0.0 -1.0
  outer loop
    vertex -1.9999999999999998 0.0 0.0
    vertex 1.654518677937491 3.214110472164033 -1.762479051592436e-16
    vertex 1.6000000000000005 2.8 -1.762479051592436e-16
  endloop
endfacet
facet normal 0.0 0.0 -1.0
  outer loop
    vertex 2.785889527835967 4.3454813220625095 -1.762479051592436e-16
    vertex 8.400000000000002 5.7999999999999945 0.0
    vertex 3.2000000000000006 4.4 -1.762479051592436e-16
  endloop
endfacet
facet normal 0.0 0.0 -1.0
  outer loop
    vertex 3.2000000000000006 4.4 -1.762479051592436e-16
    vertex 8.400000000000002 5.7999999999999945 0.0
    vertex 3.614110472164033 4.3454813220625095 -1.762479051592436e-16
  endloop
endfacet
facet normal 0.0 0.0 -1.0
  outer loop
    vertex 3.614110472164033 4.3454813220625095 -1.762479051592436e-16
    vertex 8.400000000000002 5.7999999999999945 0.0
    vertex 4.0 4.185640646055102 -1.762479051592436e-16
  endloop
endfacet
facet normal 0.0 0.0 -1.0
  outer loop
    vertex 4.0 4.185640646055102 -1.762479051592436e-16
    vertex 8.400000000000002 5.7999999999999945 0.0
    vertex 4.331370849898476 3.9313708498984767 -1.762479051592436e-16
  endloop
endfacet
facet normal 0.0 0.0 -1.0
  outer loop
    vertex 4.331370849898476 3.9313708498984767 -1.762479051592436e-16
    vertex 8.400000000000002 5.7999999999999945 0.0
    vertex 4.5856406460551025 3.6000000000000005 -1.762479051592436e-16
  endloop
endfacet
facet normal 0.0 0.0 -1.0
  outer loop
    vertex 4.5856406460551025 3.6000000000000005 -1.762479051592436e-16
    vertex 8.400000000000002 5.7999999999999945 0.0
    vertex 4.745481322062509 3.214110472164034 -1.762479051592436e-16
  endloop
endfacet
facet normal 0.0 0.0 -1.0
  outer loop
    vertex 4.745481322062509 3.214110472164034 -1.762479051592436e-16
    vertex 8.400000000000002 5.7999999999999945 0.0
    vertex 4.800000000000002 2.8000000000000003 -1.762479051592436e-16
  endloop
endfacet
facet normal 0.0 0.0 -1.0
  outer loop
    vertex -1.9999999999999998 0.0 0.0
    vertex 2.785889527835967 1.2545186779374904 -1.762479051592436e-16
    vertex 8.400000000000002 0.0 0.0
  endloop
endfacet
facet normal 0.0 0.0 -1.0
  outer loop
    vertex 2.785889527835967 1.2545186779374904 -1.762479051592436e-16
    vertex -1.9999999999999998 0.0 0.0
    vertex 2.4000000000000004 1.4143593539448978 -1.762479051592436e-16
  endloop
endfacet
facet normal 0.0 0.0 -1.0
  outer loop
    vertex 2.4000000000000004 1.4143593539448978 -1.762479051592436e-16
    vertex -1.9999999999999998 0.0 0.0
    vertex 2.068629150101524 1.6686291501015236 -1.762479051592436e-16
  endloop
endfacet
facet normal 0.0 0.0 -1.0
  outer loop
    vertex 2.068629150101524 1.6686291501015236 -1.762479051592436e-16
    vertex -1.9999999999999998 0.0 0.0
    vertex 1.814359353944899 1.9999999999999996 -1.762479051592436e-16
  endloop
endfacet
facet normal 0.0 0.0 -1.0
  outer loop
    vertex 1.814359353944899 1.9999999999999996 -1.762479051592436e-16
    vertex -1.9999999999999998 0.0 0.0
    vertex 1.654518677937491 2.385889527835966 -1.762479051592436e-16
  endloop
endfacet
facet normal 0.0 0.0 -1.0
  outer loop
    vertex 1.654518677937491 2.385889527835966 -1.762479051592436e-16
    vertex -1.9999999999999998 0.0 0.0
    vertex 1.6000000000000005 2.8 -1.762479051592436e-16
  endloop
endfacet
facet normal 0.0 0.0 -1.0
  outer loop
    vertex 8.400000000000002 0.0 0.0
    vertex 2.785889527835967 1.2545186779374904 -1.762479051592436e-16
    vertex 3.2000000000000006 1.1999999999999995 -1.762479051592436e-16
  endloop
endfacet
facet normal 0.0 0.0 -1.0
  outer loop
    vertex 8.400000000000002 0.0 0.0
    vertex 3.2000000000000006 1.1999999999999995 -1.762479051592436e-16
    vertex 3.614110472164035 1.2545186779374906 -1.762479051592436e-16
  endloop
endfacet
facet normal 0.0 0.0 -1.0
  outer loop
    vertex 8.400000000000002 0.0 0.0
    vertex 3.614110472164035 1.2545186779374906 -1.762479051592436e-16
    vertex 4.000000000000001 1.4143593539448982 -1.762479051592436e-16
  endloop
endfacet
facet normal 0.0 0.0 -1.0
  outer loop
    vertex 8.400000000000002 0.0 0.0
    vertex 4.000000000000001 1.4143593539448982 -1.762479051592436e-16
    vertex 4.331370849898477 1.6686291501015236 -1.762479051592436e-16
  endloop
endfacet
facet normal 0.0 0.0 -1.0
  outer loop
    vertex 8.400000000000002 0.0 0.0
    vertex 4.331370849898477 1.6686291501015236 -1.762479051592436e-16
    vertex 4.585640646055103 2.000000000000001 -1.762479051592436e-16
  endloop
endfacet
facet normal 0.0 0.0 -1.0
  outer loop
    vertex 8.400000000000002 0.0 0.0
    vertex 4.585640646055103 2.000000000000001 -1.762479051592436e-16
    vertex 4.745481322062509 2.385889527835967 -1.762479051592436e-16
  endloop
endfacet
facet normal 0.0 0.0 -1.0
  outer loop
    vertex 8.400000000000002 0.0 0.0
    vertex 4.745481322062509 2.385889527835967 -1.762479051592436e-16
    vertex 4.800000000000002 2.8000000000000003 -1.762479051592436e-16
  endloop
endfacet
facet normal 0.0 0.0 -1.0
  outer loop
    vertex 8.400000000000002 0.0 0.0
    vertex 4.800000000000002 2.8000000000000003 -1.762479051592436e-16
    vertex 8.400000000000002 5.7999999999999945 0.0
  endloop
endfacet
facet normal 0.0 0.0 1.0
  outer loop
    vertex -1.9999999999999998 0.0 1.5
    vertex 2.068629150101524 1.6686291501015236 1.5
    vertex -1.9999999999999998 5.7999999999999945 1.5
  endloop
endfacet
facet normal 0.0 0.0 1.0
  outer loop
    vertex 2.068629150101524 1.6686291501015236 1.5
    vertex -1.9999999999999998 0.0 1.5
    vertex 2.4000000000000004 1.4143593539448978 1.5
  endloop
endfacet
facet normal 0.0 0.0 1.0
  outer loop
    vertex 2.4000000000000004 1.4143593539448978 1.5
    vertex -1.9999999999999998 0.0 1.5
    vertex 2.785889527835967 1.2545186779374904 1.5
  endloop
endfacet
facet normal 0.0 0.0 1.0
  outer loop
    vertex 2.785889527835967 1.2545186779374904 1.5
    vertex -1.9999999999999998 0.0 1.5
    vertex 8.400000000000002 0.0 1.5
  endloop
endfacet
facet normal 0.0 0.0 1.0
  outer loop
    vertex -1.9999999999999998 5.7999999999999945 1.5
    vertex 2.068629150101524 1.6686291501015236 1.5
    vertex 1.814359353944899 1.9999999999999996 1.5
  endloop
endfacet
facet normal 0.0 0.0 1.0
  outer loop
    vertex -1.9999999999999998 5.7999999999999945 1.5
    vertex 1.814359353944899 1.9999999999999996 1.5
    vertex 1.654518677937491 2.385889527835966 1.5
  endloop
endfacet
facet normal 0.0 0.0 1.0
  outer loop
    vertex -1.9999999999999998 5.7999999999999945 1.5
    vertex 1.654518677937491 2.385889527835966 1.5
    vertex 1.6000000000000005 2.8 1.5
  endloop
endfacet
facet normal 0.0 0.0 1.0
  outer loop
    vertex 2.785889527835967 1.2545186779374904 1.5
    vertex 8.400000000000002 0.0 1.5
    vertex 3.2000000000000006 1.1999999999999995 1.5
  endloop
endfacet
facet normal 0.0 0.0 1.0
  outer loop
    vertex 3.2000000000000006 1.1999999999999995 1.5
    vertex 8.400000000000002 0.0 1.5
    vertex 3.614110472164035 1.2545186779374906 1.5
  endloop
endfacet
facet normal 0.0 0.0 1.0
  outer loop
    vertex 3.614110472164035 1.2545186779374906 1.5
    vertex 8.400000000000002 0.0 1.5
    vertex 4.000000000000001 1.4143593539448982 1.5
  endloop
endfacet
facet normal 0.0 0.0 1.0
  outer loop
    vertex 4.000000000000001 1.4143593539448982 1.5
    vertex 8.400000000000002 0.0 1.5
    vertex 4.331370849898477 1.6686291501015236 1.5
  endloop
endfacet
facet normal 0.0 0.0 1.0
  outer loop
    vertex 4.331370849898477 1.6686291501015236 1.5
    vertex 8.400000000000002 0.0 1.5
    vertex 4.585640646055103 2.000000000000001 1.5
  endloop
endfacet
facet normal 0.0 0.0 1.0
  outer loop
    vertex 4.585640646055103 2.000000000000001 1.5
    vertex 8.400000000000002 0.0 1.5
    vertex 4.745481322062509 2.385889527835967 1.5
  endloop
endfacet
facet normal 0.0 0.0 1.0
  outer loop
    vertex 4.745481322062509 2.385889527835967 1.5
    vertex 8.400000000000002 0.0 1.5
    vertex 4.800000000000002 2.8000000000000003 1.5
  endloop
endfacet
facet normal 0.0 0.0 1.0
  outer loop
    vertex -1.9999999999999998 5.7999999999999945 1.5
    vertex 2.785889527835967 4.3454813220625095 1.5
    vertex 8.400000000000002 5.7999999999999945 1.5
  endloop
endfacet
facet normal 0.0 0.0 1.0
  outer loop
    vertex 2.785889527835967 4.3454813220625095 1.5
    vertex -1.9999999999999998 5.7999999999999945 1.5
    vertex 2.4 4.185640646055101 1.5
  endloop
endfacet
facet normal 0.0 0.0 1.0
  outer loop
    vertex 2.4 4.185640646055101 1.5
    vertex -1.9999999999999998 5.7999999999999945 1.5
    vertex 2.068629150101524 3.931370849898476 1.5
  endloop
endfacet
facet normal 0.0 0.0 1.0
  outer loop
    vertex 2.068629150101524 3.931370849898476 1.5
    vertex -1.9999999999999998 5.7999999999999945 1.5
    vertex 1.8143593539448983 3.5999999999999996 1.5
  endloop
endfacet
facet normal 0.0 0.0 1.0
  outer loop
    vertex 1.8143593539448983 3.5999999999999996 1.5
    vertex -1.9999999999999998 5.7999999999999945 1.5
    vertex 1.654518677937491 3.214110472164033 1.5
  endloop
endfacet
facet normal 0.0 0.0 1.0
  outer loop
    vertex 1.654518677937491 3.214110472164033 1.5
    vertex -1.9999999999999998 5.7999999999999945 1.5
    vertex 1.6000000000000005 2.8 1.5
  endloop
endfacet
facet normal 0.0 0.0 1.0
  outer loop
    vertex 8.400000000000002 5.7999999999999945 1.5
    vertex 2.785889527835967 4.3454813220625095 1.5
    vertex 3.2000000000000006 4.4 1.5
  endloop
endfacet
facet normal 0.0 0.0 1.0
  outer loop
    vertex 8.400000000000002 5.7999999999999945 1.5
    vertex 3.2000000000000006 4.4 1.5
    vertex 3.614110472164033 4.3454813220625095 1.5
  endloop
endfacet
facet normal 0.0 0.0 1.0
  outer loop
    vertex 8.400000000000002 5.7999999999999945 1.5
    vertex 3.614110472164033 4.3454813220625095 1.5
    vertex 4.0 4.185640646055102 1.5
  endloop
endfacet
facet normal 0.0 0.0 1.0
  outer loop
    vertex 8.400000000000002 5.7999999999999945 1.5
    vertex 4.0 4.185640646055102 1.5
    vertex 4.331370849898476 3.9313708498984767 1.5
  endloop
endfacet
facet normal 0.0 0.0 1.0
  outer loop
    vertex 8.400000000000002 5.7999999999999945 1.5
    vertex 4.331370849898476 3.9313708498984767 1.5
    vertex 4.5856406460551025 3.6000000000000005 1.5
  endloop
endfacet
facet normal 0.0 0.0 1.0
  outer loop
    vertex 8.400000000000002 5.7999999999999945 1.5
    vertex 4.5856406460551025 3.6000000000000005 1.5
    vertex 4.745481322062509 3.214110472164034 1.5
  endloop
endfacet
facet normal 0.0 0.0 1.0
  outer loop
    vertex 8.400000000000002 5.7999999999999945 1.5
    vertex 4.745481322062509 3.214110472164034 1.5
    vertex 4.800000000000002 2.8000000000000003 1.5
  endloop
endfacet
facet normal 0.0 0.0 1.0
  outer loop
    vertex 8.400000000000002 5.7999999999999945 1.5
    vertex 4.800000000000002 2.8000000000000003 1.5
    vertex 8.400000000000002 0.0 1.5
  endloop
endfacet
facet normal 1.0 0.0 0.0
  outer loop
    vertex 8.400000000000002 5.7999999999999945 0.0
    vertex 8.400000000000002 0.0 1.5
    vertex 8.400000000000002 0.0 0.0
  endloop
endfacet
facet normal 1.0 0.0 0.0
  outer loop
    vertex 8.400000000000002 0.0 1.5
    vertex 8.400000000000002 5.7999999999999945 0.0
    vertex 8.400000000000002 5.7999999999999945 1.5
  endloop
endfacet
facet normal 0.0 1.0 0.0
  outer loop
    vertex -1.9999999999999998 5.7999999999999945 1.5
    vertex 8.400000000000002 5.7999999999999945 0.0
    vertex -1.9999999999999998 5.7999999999999945 0.0
  endloop
endfacet
facet normal 0.0 1.0 0.0
  outer loop
    vertex 8.400000000000002 5.7999999999999945 0.0
    vertex -1.9999999999999998 5.7999999999999945 1.5
    vertex 8.400000000000002 5.7999999999999945 1.5
  endloop
endfacet
facet normal -0.0 -1.0 -0.0
  outer loop
    vertex 8.400000000000002 0.0 1.5
    vertex -1.9999999999999998 0.0 0.0
    vertex 8.400000000000002 0.0 0.0
  endloop
endfacet
facet normal -0.0 -1.0 -0.0
  outer loop
    vertex -1.9999999999999998 0.0 0.0
    vertex 8.400000000000002 0.0 1.5
    vertex -1.9999999999999998 0.0 1.5
  endloop
endfacet
facet normal -1.0 0.0 0.0
  outer loop
    vertex -1.9999999999999998 5.7999999999999945 1.5
    vertex -1.9999999999999998 0.0 0.0
    vertex -1.9999999999999998 0.0 1.5
  endloop
endfacet
facet normal -1.0 0.0 0.0
  outer loop
    vertex -1.9999999999999998 0.0 0.0
    vertex -1.9999999999999998 5.7999999999999945 1.5
    vertex -1.9999999999999998 5.7999999999999945 0.0
  endloop
endfacet
facet normal -0.13052619222005193 0.9914448613738104 -1.41532688954537e-32
  outer loop
    vertex 3.2000000000000006 1.1999999999999995 1.5
    vertex 3.614110472164035 1.2545186779374906 -1.762479051592436e-16
    vertex 3.2000000000000006 1.1999999999999995 -1.762479051592436e-16
  endloop
endfacet
facet normal -0.13052619222005193 0.9914448613738104 -1.41532688954537e-32
  outer loop
    vertex 3.614110472164035 1.2545186779374906 -1.762479051592436e-16
    vertex 3.2000000000000006 1.1999999999999995 1.5
    vertex 3.614110472164035 1.2545186779374906 1.5
  endloop
endfacet
facet normal -0.3826834323650909 0.9238795325112864 -5.753568741999097e-32
  outer loop
    vertex 3.614110472164035 1.2545186779374906 1.5
    vertex 4.000000000000001 1.4143593539448982 -1.762479051592436e-16
    vertex 3.614110472164035 1.2545186779374906 -1.762479051592436e-16
  endloop
endfacet
facet normal -0.3826834323650909 0.9238795325112864 -5.753568741999097e-32
  outer loop
    vertex 4.000000000000001 1.4143593539448982 -1.762479051592436e-16
    vertex 3.614110472164035 1.2545186779374906 1.5
    vertex 4.000000000000001 1.4143593539448982 1.5
  endloop
endfacet
facet normal -0.6087614290087207 0.7933533402912354 -9.699714392907464e-32
  outer loop
    vertex 4.000000000000001 1.4143593539448982 1.5
    vertex 4.331370849898477 1.6686291501015236 -1.762479051592436e-16
    vertex 4.000000000000001 1.4143593539448982 -1.762479051592436e-16
  endloop
endfacet
facet normal -0.6087614290087207 0.7933533402912354 -9.699714392907464e-32
  outer loop
    vertex 4.331370849898477 1.6686291501015236 -1.762479051592436e-16
    vertex 4.000000000000001 1.4143593539448982 1.5
    vertex 4.331370849898477 1.6686291501015236 1.5
  endloop
endfacet
facet normal -0.793353340291236 0.6087614290087197 -1.2984840537475157e-31
  outer loop
    vertex 4.585640646055103 2.000000000000001 1.5
    vertex 4.331370849898477 1.6686291501015236 -1.762479051592436e-16
    vertex 4.331370849898477 1.6686291501015236 1.5
  endloop
endfacet
facet normal -0.793353340291236 0.6087614290087197 -1.2984840537475157e-31
  outer loop
    vertex 4.331370849898477 1.6686291501015236 -1.762479051592436e-16
    vertex 4.585640646055103 2.000000000000001 1.5
    vertex 4.585640646055103 2.000000000000001 -1.762479051592436e-16
  endloop
endfacet
facet normal -0.9238795325112868 0.38268343236508995 -1.5385071257877473e-31
  outer loop
    vertex 4.745481322062509 2.385889527835967 1.5
    vertex 4.585640646055103 2.000000000000001 -1.762479051592436e-16
    vertex 4.585640646055103 2.000000000000001 1.5
  endloop
endfacet
facet normal -0.9238795325112868 0.38268343236508995 -1.5385071257877473e-31
  outer loop
    vertex 4.585640646055103 2.000000000000001 -1.762479051592436e-16
    vertex 4.745481322062509 2.385889527835967 1.5
    vertex 4.745481322062509 2.385889527835967 -1.762479051592436e-16
  endloop
endfacet
facet normal -0.9914448613738103 0.13052619222005246 -1.6736834797087833e-31
  outer loop
    vertex 4.800000000000002 2.8000000000000003 1.5
    vertex 4.745481322062509 2.385889527835967 -1.762479051592436e-16
    vertex 4.745481322062509 2.385889527835967 1.5
  endloop
endfacet
facet normal -0.9914448613738103 0.13052619222005246 -1.6736834797087833e-31
  outer loop
    vertex 4.745481322062509 2.385889527835967 -1.762479051592436e-16
    vertex 4.800000000000002 2.8000000000000003 1.5
    vertex 4.800000000000002 2.8000000000000003 -1.762479051592436e-16
  endloop
endfacet
facet normal -0.9914448613738104 -0.13052619222005227 -1.694801070380393e-31
  outer loop
    vertex 4.745481322062509 3.214110472164034 1.5
    vertex 4.800000000000002 2.8000000000000003 -1.762479051592436e-16
    vertex 4.800000000000002 2.8000000000000003 1.5
  endloop
endfacet
facet normal -0.9914448613738104 -0.13052619222005227 -1.694801070380393e-31
  outer loop
    vertex 4.800000000000002 2.8000000000000003 -1.762479051592436e-16
    vertex 4.745481322062509 3.214110472164034 1.5
    vertex 4.745481322062509 3.214110472164034 -1.762479051592436e-16
  endloop
endfacet
facet normal -0.9238795325112863 -0.38268343236509106 -1.6004207688967728e-31
  outer loop
    vertex 4.5856406460551025 3.6000000000000005 1.5
    vertex 4.745481322062509 3.214110472164034 -1.762479051592436e-16
    vertex 4.745481322062509 3.214110472164034 1.5
  endloop
endfacet
facet normal -0.9238795325112863 -0.38268343236509106 -1.6004207688967728e-31
  outer loop
    vertex 4.745481322062509 3.214110472164034 -1.762479051592436e-16
    vertex 4.5856406460551025 3.6000000000000005 1.5
    vertex 4.5856406460551025 3.6000000000000005 -1.762479051592436e-16
  endloop
endfacet
facet normal -0.7933533402912352 -0.6087614290087209 -1.3969744368332106e-31
  outer loop
    vertex 4.331370849898476 3.9313708498984767 1.5
    vertex 4.5856406460551025 3.6000000000000005 -1.762479051592436e-16
    vertex 4.5856406460551025 3.6000000000000005 1.5
  endloop
endfacet
facet normal -0.7933533402912352 -0.6087614290087209 -1.3969744368332106e-31
  outer loop
    vertex 4.5856406460551025 3.6000000000000005 -1.762479051592436e-16
    vertex 4.331370849898476 3.9313708498984767 1.5
    vertex 4.331370849898476 3.9313708498984767 -1.762479051592436e-16
  endloop
endfacet
facet normal -0.6087614290087207 -0.7933533402912354 -1.0983266055088762e-31
  outer loop
    vertex 4.331370849898476 3.9313708498984767 1.5
    vertex 4.0 4.185640646055102 -1.762479051592436e-16
    vertex 4.331370849898476 3.9313708498984767 -1.762479051592436e-16
  endloop
endfacet
facet normal -0.6087614290087207 -0.7933533402912354 -1.0983266055088762e-31
  outer loop
    vertex 4.0 4.185640646055102 -1.762479051592436e-16
    vertex 4.331370849898476 3.9313708498984767 1.5
    vertex 4.0 4.185640646055102 1.5
  endloop
endfacet
facet normal -0.38268343236508895 -0.9238795325112871 -7.248296310896454e-32
  outer loop
    vertex 4.0 4.185640646055102 1.5
    vertex 3.614110472164033 4.3454813220625095 -1.762479051592436e-16
    vertex 4.0 4.185640646055102 -1.762479051592436e-16
  endloop
endfacet
facet normal -0.38268343236508895 -0.9238795325112871 -7.248296310896454e-32
  outer loop
    vertex 3.614110472164033 4.3454813220625095 -1.762479051592436e-16
    vertex 4.0 4.185640646055102 1.5
    vertex 3.614110472164033 4.3454813220625095 1.5
  endloop
endfacet
facet normal -0.1305261922200526 -0.9914448613738104 -3.019367151492608e-32
  outer loop
    vertex 3.614110472164033 4.3454813220625095 1.5
    vertex 3.2000000000000006 4.4 -1.762479051592436e-16
    vertex 3.614110472164033 4.3454813220625095 -1.762479051592436e-16
  endloop
endfacet
facet normal -0.1305261922200526 -0.9914448613738104 -3.019367151492608e-32
  outer loop
    vertex 3.2000000000000006 4.4 -1.762479051592436e-16
    vertex 3.614110472164033 4.3454813220625095 1.5
    vertex 3.2000000000000006 4.4 1.5
  endloop
endfacet
facet normal 0.13052619222005227 -0.9914448613738104 1.4153268895453759e-32
  outer loop
    vertex 3.2000000000000006 4.4 1.5
    vertex 2.785889527835967 4.3454813220625095 -1.762479051592436e-16
    vertex 3.2000000000000006 4.4 -1.762479051592436e-16
  endloop
endfacet
facet normal 0.13052619222005227 -0.9914448613738104 1.4153268895453759e-32
  outer loop
    vertex 2.785889527835967 4.3454813220625095 -1.762479051592436e-16
    vertex 3.2000000000000006 4.4 1.5
    vertex 2.785889527835967 4.3454813220625095 1.5
  endloop
endfacet
facet normal 0.3826834323650907 -0.9238795325112864 5.753568741999094e-32
  outer loop
    vertex 2.785889527835967 4.3454813220625095 1.5
    vertex 2.4 4.185640646055101 -1.762479051592436e-16
    vertex 2.785889527835967 4.3454813220625095 -1.762479051592436e-16
  endloop
endfacet
facet normal 0.3826834323650907 -0.9238795325112864 5.753568741999094e-32
  outer loop
    vertex 2.4 4.185640646055101 -1.762479051592436e-16
    vertex 2.785889527835967 4.3454813220625095 1.5
    vertex 2.4 4.185640646055101 1.5
  endloop
endfacet
facet normal 0.6087614290087207 -0.7933533402912354 9.699714392907464e-32
  outer loop
    vertex 2.4 4.185640646055101 1.5
    vertex 2.068629150101524 3.931370849898476 -1.762479051592436e-16
    vertex 2.4 4.185640646055101 -1.762479051592436e-16
  endloop
endfacet
facet normal 0.6087614290087207 -0.7933533402912354 9.699714392907464e-32
  outer loop
    vertex 2.068629150101524 3.931370849898476 -1.762479051592436e-16
    vertex 2.4 4.185640646055101 1.5
    vertex 2.068629150101524 3.931370849898476 1.5
  endloop
endfacet
facet normal 0.7933533402912352 -0.6087614290087209 1.298484053747514e-31
  outer loop
    vertex 2.068629150101524 3.931370849898476 -1.762479051592436e-16
    vertex 1.8143593539448983 3.5999999999999996 1.5
    vertex 1.8143593539448983 3.5999999999999996 -1.762479051592436e-16
  endloop
endfacet
facet normal 0.7933533402912352 -0.6087614290087209 1.298484053747514e-31
  outer loop
    vertex 1.8143593539448983 3.5999999999999996 1.5
    vertex 2.068629150101524 3.931370849898476 -1.762479051592436e-16
    vertex 2.068629150101524 3.931370849898476 1.5
  endloop
endfacet
facet normal 0.923879532511287 -0.38268343236508967 1.5385071257877475e-31
  outer loop
    vertex 1.8143593539448983 3.5999999999999996 -1.762479051592436e-16
    vertex 1.654518677937491 3.214110472164033 1.5
    vertex 1.654518677937491 3.214110472164033 -1.762479051592436e-16
  endloop
endfacet
facet normal 0.923879532511287 -0.38268343236508967 1.5385071257877475e-31
  outer loop
    vertex 1.654518677937491 3.214110472164033 1.5
    vertex 1.8143593539448983 3.5999999999999996 -1.762479051592436e-16
    vertex 1.8143593539448983 3.5999999999999996 1.5
  endloop
endfacet
facet normal 0.9914448613738104 -0.13052619222005155 1.6736834797087837e-31
  outer loop
    vertex 1.654518677937491 3.214110472164033 -1.762479051592436e-16
    vertex 1.6000000000000005 2.8 1.5
    vertex 1.6000000000000005 2.8 -1.762479051592436e-16
  endloop
endfacet
facet normal 0.9914448613738104 -0.13052619222005155 1.6736834797087837e-31
  outer loop
    vertex 1.6000000000000005 2.8 1.5
    vertex 1.654518677937491 3.214110472164033 -1.762479051592436e-16
    vertex 1.654518677937491 3.214110472164033 1.5
  endloop
endfacet
facet normal 0.9914448613738106 0.13052619222005146 1.6948010703803935e-31
  outer loop
    vertex 1.6000000000000005 2.8 -1.762479051592436e-16
    vertex 1.654518677937491 2.385889527835966 1.5
    vertex 1.654518677937491 2.385889527835966 -1.762479051592436e-16
  endloop
endfacet
facet normal 0.9914448613738106 0.13052619222005146 1.6948010703803935e-31
  outer loop
    vertex 1.654518677937491 2.385889527835966 1.5
    vertex 1.6000000000000005 2.8 -1.762479051592436e-16
    vertex 1.6000000000000005 2.8 1.5
  endloop
endfacet
facet normal 0.9238795325112867 0.3826834323650904 1.6004207688967734e-31
  outer loop
    vertex 1.654518677937491 2.385889527835966 -1.762479051592436e-16
    vertex 1.814359353944899 1.9999999999999996 1.5
    vertex 1.814359353944899 1.9999999999999996 -1.762479051592436e-16
  endloop
endfacet
facet normal 0.9238795325112867 0.3826834323650904 1.6004207688967734e-31
  outer loop
    vertex 1.814359353944899 1.9999999999999996 1.5
    vertex 1.654518677937491 2.385889527835966 -1.762479051592436e-16
    vertex 1.654518677937491 2.385889527835966 1.5
  endloop
endfacet
facet normal 0.7933533402912352 0.6087614290087207 1.3969744368332104e-31
  outer loop
    vertex 1.814359353944899 1.9999999999999996 -1.762479051592436e-16
    vertex 2.068629150101524 1.6686291501015236 1.5
    vertex 2.068629150101524 1.6686291501015236 -1.762479051592436e-16
  endloop
endfacet
facet normal 0.7933533402912352 0.6087614290087207 1.3969744368332104e-31
  outer loop
    vertex 2.068629150101524 1.6686291501015236 1.5
    vertex 1.814359353944899 1.9999999999999996 -1.762479051592436e-16
    vertex 1.814359353944899 1.9999999999999996 1.5
  endloop
endfacet
facet normal 0.6087614290087205 0.7933533402912353 1.098326605508876e-31
  outer loop
    vertex 2.068629150101524 1.6686291501015236 1.5
    vertex 2.4000000000000004 1.4143593539448978 -1.762479051592436e-16
    vertex 2.068629150101524 1.6686291501015236 -1.762479051592436e-16
  endloop
endfacet
facet normal 0.6087614290087205 0.7933533402912353 1.098326605508876e-31
  outer loop
    vertex 2.4000000000000004 1.4143593539448978 -1.762479051592436e-16
    vertex 2.068629150101524 1.6686291501015236 1.5
    vertex 2.4000000000000004 1.4143593539448978 1.5
  endloop
endfacet
facet normal 0.38268343236508995 0.9238795325112867 7.248296310896471e-32
  outer loop
    vertex 2.4000000000000004 1.4143593539448978 1.5
    vertex 2.785889527835967 1.2545186779374904 -1.762479051592436e-16
    vertex 2.4000000000000004 1.4143593539448978 -1.762479051592436e-16
  endloop
endfacet
facet normal 0.38268343236508995 0.9238795325112867 7.248296310896471e-32
  outer loop
    vertex 2.785889527835967 1.2545186779374904 -1.762479051592436e-16
    vertex 2.4000000000000004 1.4143593539448978 1.5
    vertex 2.785889527835967 1.2545186779374904 1.5
  endloop
endfacet
facet normal 0.13052619222005155 0.9914448613738104 3.01936715149259e-32
  outer loop
    vertex 2.785889527835967 1.2545186779374904 1.5
    vertex 3.2000000000000006 1.1999999999999995 -1.762479051592436e-16
    vertex 2.785889527835967 1.2545186779374904 -1.762479051592436e-16
  endloop
endfacet
facet normal 0.13052619222005155 0.9914448613738104 3.01936715149259e-32
  outer loop
    vertex 3.2000000000000006 1.1999999999999995 -1.762479051592436e-16
    vertex 2.785889527835967 1.2545186779374904 1.5
    vertex 3.2000000000000006 1.1999999999999995 1.5
  endloop
endfacet
facet normal 0.0 1.0 0.0
  outer loop
    vertex -5.8 0.0 1.5
    vertex 12.200000000000003 0.0 0.0
    vertex -5.8 0.0 0.0
  endloop
endfacet
facet normal 0.0 1.0 0.0
  outer loop
    vertex 12.200000000000003 0.0 0.0
    vertex -5.8 0.0 1.5
    vertex 12.200000000000003 0.0 1.5
  endloop
endfacet
facet normal 1.0 0.0 0.0
  outer loop
    vertex 12.200000000000003 0.0 0.0
    vertex 12.200000000000003 -2.0000000000000004 1.5
    vertex 12.200000000000003 -2.0000000000000004 1.0574874309554614e-15
  endloop
endfacet
facet normal 1.0 0.0 0.0
  outer loop
    vertex 12.200000000000003 -2.0000000000000004 1.5
    vertex 12.200000000000003 0.0 0.0
    vertex 12.200000000000003 0.0 1.5
  endloop
endfacet
facet normal 0.0 -1.0 0.0
  outer loop
    vertex 7.200000000000004 -3.0 1.5
    vertex -0.7999999999999999 -3.0 2.643718577388654e-15
    vertex 7.200000000000004 -3.0 1.0574874309554614e-15
  endloop
endfacet
facet normal 0.0 -1.0 0.0
  outer loop
    vertex -0.7999999999999999 -3.0 2.643718577388654e-15
    vertex 7.200000000000004 -3.0 1.5
    vertex -0.7999999999999999 -3.0 1.5
  endloop
endfacet
facet normal -1.1720919801230485e-17 -1.7260198704691382e-34 1.0
  outer loop
    vertex -1.8000000000000003 -2.0000000000000004 1.5
    vertex -5.8 0.0 1.5
    vertex -5.8 -2.0000000000000004 1.5
  endloop
endfacet
facet normal -1.1720919801230485e-17 -1.7260198704691382e-34 1.0
  outer loop
    vertex -5.8 0.0 1.5
    vertex -1.8000000000000003 -2.0000000000000004 1.5
    vertex 12.200000000000003 0.0 1.5
  endloop
endfacet
facet normal -1.1720919801230485e-17 -1.7260198704691382e-34 1.0
  outer loop
    vertex 12.200000000000003 0.0 1.5
    vertex -1.8000000000000003 -2.0000000000000004 1.5
    vertex -0.7999999999999999 -3.0 1.5
  endloop
endfacet
facet normal -1.1720919801230485e-17 -1.7260198704691382e-34 1.0
  outer loop
    vertex 12.200000000000003 0.0 1.5
    vertex -0.7999999999999999 -3.0 1.5
    vertex 8.200000000000003 -2.0000000000000004 1.5
  endloop
endfacet
facet normal -1.1720919801230485e-17 -1.7260198704691382e-34 1.0
  outer loop
    vertex 8.200000000000003 -2.0000000000000004 1.5
    vertex -0.7999999999999999 -3.0 1.5
    vertex 7.200000000000004 -3.0 1.5
  endloop
endfacet
facet normal -1.1720919801230485e-17 -1.7260198704691382e-34 1.0
  outer loop
    vertex 12.200000000000003 0.0 1.5
    vertex 8.200000000000003 -2.0000000000000004 1.5
    vertex 12.200000000000003 -2.0000000000000004 1.5
  endloop
endfacet
facet normal -1.0 0.0 0.0
  outer loop
    vertex -5.8 0.0 1.5
    vertex -5.8 -2.0000000000000004 2.643718577388654e-15
    vertex -5.8 -2.0000000000000004 1.5
  endloop
endfacet
facet normal -1.0 0.0 0.0
  outer loop
    vertex -5.8 -2.0000000000000004 2.643718577388654e-15
    vertex -5.8 0.0 1.5
    vertex -5.8 0.0 0.0
  endloop
endfacet
facet normal -9.562271835462954e-17 -5.393460374227777e-16 -1.0
  outer loop
    vertex 12.200000000000003 0.0 0.0
    vertex -5.8 -2.0000000000000004 2.643718577388654e-15
    vertex -5.8 0.0 0.0
  endloop
endfacet
facet normal -9.562271835462954e-17 -5.393460374227777e-16 -1.0
  outer loop
    vertex -5.8 -2.0000000000000004 2.643718577388654e-15
    vertex 12.200000000000003 0.0 0.0
    vertex -1.8000000000000003 -2.0000000000000004 2.643718577388654e-15
  endloop
endfacet
facet normal -9.562271835462954e-17 -5.393460374227777e-16 -1.0
  outer loop
    vertex -1.8000000000000003 -2.0000000000000004 2.643718577388654e-15
    vertex 12.200000000000003 0.0 0.0
    vertex -0.7999999999999999 -3.0 2.643718577388654e-15
  endloop
endfacet
facet normal -9.562271835462954e-17 -5.393460374227777e-16 -1.0
  outer loop
    vertex -0.7999999999999999 -3.0 2.643718577388654e-15
    vertex 12.200000000000003 0.0 0.0
    vertex 8.200000000000003 -2.0000000000000004 1.0574874309554614e-15
  endloop
endfacet
facet normal -9.562271835462954e-17 -5.393460374227777e-16 -1.0
  outer loop
    vertex -0.7999999999999999 -3.0 2.643718577388654e-15
    vertex 8.200000000000003 -2.0000000000000004 1.0574874309554614e-15
    vertex 7.200000000000004 -3.0 1.0574874309554614e-15
  endloop
endfacet
facet normal -9.562271835462954e-17 -5.393460374227777e-16 -1.0
  outer loop
    vertex 8.200000000000003 -2.0000000000000004 1.0574874309554614e-15
    vertex 12.200000000000003 0.0 0.0
    vertex 12.200000000000003 -2.0000000000000004 1.0574874309554614e-15
  endloop
endfacet
facet normal -0.7071067811865472 -0.7071067811865478 0.0
  outer loop
    vertex -0.7999999999999999 -3.0 1.5
    vertex -1.8000000000000003 -2.0000000000000004 2.643718577388654e-15
    vertex -0.7999999999999999 -3.0 2.643718577388654e-15
  endloop
endfacet
facet normal -0.7071067811865472 -0.7071067811865478 0.0
  outer loop
    vertex -1.8000000000000003 -2.0000000000000004 2.643718577388654e-15
    vertex -0.7999999999999999 -3.0 1.5
    vertex -1.8000000000000003 -2.0000000000000004 1.5
  endloop
endfacet
facet normal 0.0 -1.0 0.0
  outer loop
    vertex -1.8000000000000003 -2.0000000000000004 1.5
    vertex -5.8 -2.0000000000000004 2.643718577388654e-15
    vertex -1.8000000000000003 -2.0000000000000004 2.643718577388654e-15
  endloop
endfacet
facet normal 0.0 -1.0 0.0
  outer loop
    vertex -5.8 -2.0000000000000004 2.643718577388654e-15
    vertex -1.8000000000000003 -2.0000000000000004 1.5
    vertex -5.8 -2.0000000000000004 1.5
  endloop
endfacet
facet normal 0.0 -1.0 0.0
  outer loop
    vertex 12.200000000000003 -2.0000000000000004 1.5
    vertex 8.200000000000003 -2.0000000000000004 1.0574874309554614e-15
    vertex 12.200000000000003 -2.0000000000000004 1.0574874309554614e-15
  endloop
endfacet
facet normal 0.0 -1.0 0.0
  outer loop
    vertex 8.200000000000003 -2.0000000000000004 1.0574874309554614e-15
    vertex 12.200000000000003 -2.0000000000000004 1.5
    vertex 8.200000000000003 -2.0000000000000004 1.5
  endloop
endfacet
facet normal 0.7071067811865476 -0.7071067811865476 0.0
  outer loop
    vertex 8.200000000000003 -2.0000000000000004 1.0574874309554614e-15
    vertex 7.200000000000004 -3.0 1.5
    vertex 7.200000000000004 -3.0 1.0574874309554614e-15
  endloop
endfacet
facet normal 0.7071067811865476 -0.7071067811865476 0.0
  outer loop
    vertex 7.200000000000004 -3.0 1.5
    vertex 8.200000000000003 -2.0000000000000004 1.0574874309554614e-15
    vertex 8.200000000000003 -2.0000000000000004 1.5
  endloop
endfacet
facet normal -0.0 -0.0 -1.0
  outer loop
    vertex 13.200000000000001 0.9999999999999999 -1.5
    vertex 8.400000000000002 0.0 -1.5
    vertex 8.400000000000002 0.9999999999999999 -1.5
  endloop
endfacet
facet normal -0.0 -0.0 -1.0
  outer loop
    vertex 8.400000000000002 0.0 -1.5
    vertex 13.200000000000001 0.9999999999999999 -1.5
    vertex 13.200000000000001 0.0 -1.5
  endloop
endfacet
facet normal 0.0 1.0 0.0
  outer loop
    vertex 8.400000000000002 0.9999999999999999 1.5
    vertex 13.200000000000001 0.9999999999999999 -1.5
    vertex 8.400000000000002 0.9999999999999999 -1.5
  endloop
endfacet
facet normal 0.0 1.0 0.0
  outer loop
    vertex 13.200000000000001 0.9999999999999999 -1.5
    vertex 8.400000000000002 0.9999999999999999 1.5
    vertex 13.200000000000001 0.9999999999999999 1.5
  endloop
endfacet
facet normal 0.0 0.0 1.0
  outer loop
    vertex 13.200000000000001 0.0 1.5
    vertex 8.400000000000002 0.9999999999999999 1.5
    vertex 8.400000000000002 0.0 1.5
  endloop
endfacet
facet normal 0.0 0.0 1.0
  outer loop
    vertex 8.400000000000002 0.9999999999999999 1.5
    vertex 13.200000000000001 0.0 1.5
    vertex 13.200000000000001 0.9999999999999999 1.5
  endloop
endfacet
facet normal 0.0 -1.0 0.0
  outer loop
    vertex 13.200000000000001 0.0 1.5
    vertex 8.400000000000002 0.0 -1.5
    vertex 13.200000000000001 0.0 -1.5
  endloop
endfacet
facet normal 0.0 -1.0 0.0
  outer loop
    vertex 8.400000000000002 0.0 -1.5
    vertex 13.200000000000001 0.0 1.5
    vertex 8.400000000000002 0.0 1.5
  endloop
endfacet
facet normal -1.0 0.0 0.0
  outer loop
    vertex 8.400000000000002 0.9999999999999999 1.5
    vertex 8.400000000000002 0.0 -1.5
    vertex 8.400000000000002 0.0 1.5
  endloop
endfacet
facet normal -1.0 0.0 0.0
  outer loop
    vertex 8.400000000000002 0.0 -1.5
    vertex 8.400000000000002 0.9999999999999999 1.5
    vertex 8.400000000000002 0.9999999999999999 -1.5
  endloop
endfacet
facet normal 1.0 0.0 0.0
  outer loop
    vertex 13.200000000000001 0.9999999999999999 -1.5
    vertex 13.200000000000001 0.0 1.5
    vertex 13.200000000000001 0.0 -1.5
  endloop
endfacet
facet normal 1.0 0.0 0.0
  outer loop
    vertex 13.200000000000001 0.0 1.5
    vertex 13.200000000000001 0.9999999999999999 -1.5
    vertex 13.200000000000001 0.9999999999999999 1.5
  endloop
endfacet
facet normal -0.0 -0.0 -1.0
  outer loop
    vertex -1.9999999999999998 0.9999999999999999 -1.5
    vertex -6.799999999999999 0.0 -1.5
    vertex -6.799999999999999 0.9999999999999999 -1.5
  endloop
endfacet
facet normal -0.0 -0.0 -1.0
  outer loop
    vertex -6.799999999999999 0.0 -1.5
    vertex -1.9999999999999998 0.9999999999999999 -1.5
    vertex -1.9999999999999998 0.0 -1.5
  endloop
endfacet
facet normal 0.0 1.0 0.0
  outer loop
    vertex -6.799999999999999 0.9999999999999999 1.5
    vertex -1.9999999999999998 0.9999999999999999 -1.5
    vertex -6.799999999999999 0.9999999999999999 -1.5
  endloop
endfacet
facet normal 0.0 1.0 0.0
  outer loop
    vertex -1.9999999999999998 0.9999999999999999 -1.5
    vertex -6.799999999999999 0.9999999999999999 1.5
    vertex -1.9999999999999998 0.9999999999999999 1.5
  endloop
endfacet
facet normal 0.0 0.0 1.0
  outer loop
    vertex -1.9999999999999998 0.0 1.5
    vertex -6.799999999999999 0.9999999999999999 1.5
    vertex -6.799999999999999 0.0 1.5
  endloop
endfacet
facet normal 0.0 0.0 1.0
  outer loop
    vertex -6.799999999999999 0.9999999999999999 1.5
    vertex -1.9999999999999998 0.0 1.5
    vertex -1.9999999999999998 0.9999999999999999 1.5
  endloop
endfacet
facet normal 0.0 -1.0 0.0
  outer loop
    vertex -1.9999999999999998 0.0 1.5
    vertex -6.799999999999999 0.0 -1.5
    vertex -1.9999999999999998 0.0 -1.5
  endloop
endfacet
facet normal 0.0 -1.0 0.0
  outer loop
    vertex -6.799999999999999 0.0 -1.5
    vertex -1.9999999999999998 0.0 1.5
    vertex -6.799999999999999 0.0 1.5
  endloop
endfacet
facet normal -1.0 0.0 0.0
  outer loop
    vertex -6.799999999999999 0.9999999999999999 1.5
    vertex -6.799999999999999 0.0 -1.5
    vertex -6.799999999999999 0.0 1.5
  endloop
endfacet
facet normal -1.0 0.0 0.0
  outer loop
    vertex -6.799999999999999 0.0 -1.5
    vertex -6.799999999999999 0.9999999999999999 1.5
    vertex -6.799999999999999 0.9999999999999999 -1.5
  endloop
endfacet
facet normal 1.0 0.0 0.0
  outer loop
    vertex -1.9999999999999998 0.9999999999999999 -1.5
    vertex -1.9999999999999998 0.0 1.5
    vertex -1.9999999999999998 0.0 -1.5
  endloop
endfacet
facet normal 1.0 0.0 0.0
  outer loop
    vertex -1.9999999999999998 0.0 1.5
    vertex -1.9999999999999998 0.9999999999999999 -1.5
    vertex -1.9999999999999998 0.9999999999999999 1.5
  endloop
endfacet
facet normal -1.0 5.1772206788369595e-33 -8.81239525796219e-17
  outer loop
    vertex 12.200000000000003 0.0 1.5
    vertex 12.200000000000003 -1.9999999999999998 -1.5
    vertex 12.200000000000003 -2.0 1.5
  endloop
endfacet
facet normal -1.0 5.1772206788369595e-33 -8.81239525796219e-17
  outer loop
    vertex 12.200000000000003 -1.9999999999999998 -1.5
    vertex 12.200000000000003 0.0 1.5
    vertex 12.200000000000003 3.524958103184872e-16 -1.5
  endloop
endfacet
facet normal 1.0 -1.0354441357673919e-32 8.81239525796219e-17
  outer loop
    vertex 13.200000000000001 -1.9999999999999998 -1.5
    vertex 13.200000000000001 0.0 1.5000000000000004
    vertex 13.200000000000001 -2.0 1.5
  endloop
endfacet
facet normal 1.0 -1.0354441357673919e-32 8.81239525796219e-17
  outer loop
    vertex 13.200000000000001 0.0 1.5000000000000004
    vertex 13.200000000000001 -1.9999999999999998 -1.5
    vertex 13.200000000000001 3.524958103184872e-16 -1.4999999999999998
  endloop
endfacet
facet normal -8.812395257962188e-17 -8.81239525796218e-17 1.0
  outer loop
    vertex 13.200000000000001 -2.0 1.5
    vertex 12.200000000000003 0.0 1.5
    vertex 12.200000000000003 -2.0 1.5
  endloop
endfacet
facet normal -8.812395257962188e-17 -8.81239525796218e-17 1.0
  outer loop
    vertex 12.200000000000003 0.0 1.5
    vertex 13.200000000000001 -2.0 1.5
    vertex 13.200000000000001 0.0 1.5000000000000004
  endloop
endfacet
facet normal -0.0 -1.0 -8.81239525796218e-17
  outer loop
    vertex 13.200000000000001 -2.0 1.5
    vertex 12.200000000000003 -1.9999999999999998 -1.5
    vertex 13.200000000000001 -1.9999999999999998 -1.5
  endloop
endfacet
facet normal -0.0 -1.0 -8.81239525796218e-17
  outer loop
    vertex 12.200000000000003 -1.9999999999999998 -1.5
    vertex 13.200000000000001 -2.0 1.5
    vertex 12.200000000000003 -2.0 1.5
  endloop
endfacet
facet normal 8.812395257962188e-17 8.81239525796218e-17 -1.0
  outer loop
    vertex 13.200000000000001 3.524958103184872e-16 -1.4999999999999998
    vertex 12.200000000000003 -1.9999999999999998 -1.5
    vertex 12.200000000000003 3.524958103184872e-16 -1.5
  endloop
endfacet
facet normal 8.812395257962188e-17 8.81239525796218e-17 -1.0
  outer loop
    vertex 12.200000000000003 -1.9999999999999998 -1.5
    vertex 13.200000000000001 3.524958103184872e-16 -1.4999999999999998
    vertex 13.200000000000001 -1.9999999999999998 -1.5
  endloop
endfacet
facet normal -1.553166203651088e-32 1.0 8.81239525796218e-17
  outer loop
    vertex 12.200000000000003 0.0 1.5
    vertex 13.200000000000001 3.524958103184872e-16 -1.4999999999999998
    vertex 12.200000000000003 3.524958103184872e-16 -1.5
  endloop
endfacet
facet normal -1.553166203651088e-32 1.0 8.81239525796218e-17
  outer loop
    vertex 13.200000000000001 3.524958103184872e-16 -1.4999999999999998
    vertex 12.200000000000003 0.0 1.5
    vertex 13.200000000000001 0.0 1.5000000000000004
  endloop
endfacet
facet normal -1.0 5.1772206788369595e-33 -8.81239525796219e-17
  outer loop
    vertex -6.799999999999999 0.0 1.5
    vertex -6.799999999999999 -1.9999999999999998 -1.5000000000000002
    vertex -6.799999999999999 -2.0 1.5
  endloop
endfacet
facet normal -1.0 5.1772206788369595e-33 -8.81239525796219e-17
  outer loop
    vertex -6.799999999999999 -1.9999999999999998 -1.5000000000000002
    vertex -6.799999999999999 0.0 1.5
    vertex -6.799999999999999 3.524958103184872e-16 -1.5
  endloop
endfacet
facet normal 1.0 -1.0354441357673919e-32 8.81239525796219e-17
  outer loop
    vertex -5.8 -1.9999999999999998 -1.5000000000000002
    vertex -5.8 0.0 1.5000000000000002
    vertex -5.8 -2.0 1.5
  endloop
endfacet
facet normal 1.0 -1.0354441357673919e-32 8.81239525796219e-17
  outer loop
    vertex -5.8 0.0 1.5000000000000002
    vertex -5.8 -1.9999999999999998 -1.5000000000000002
    vertex -5.8 3.524958103184872e-16 -1.5
  endloop
endfacet
facet normal -8.812395257962188e-17 -8.81239525796218e-17 1.0
  outer loop
    vertex -5.8 -2.0 1.5
    vertex -6.799999999999999 0.0 1.5
    vertex -6.799999999999999 -2.0 1.5
  endloop
endfacet
facet normal -8.812395257962188e-17 -8.81239525796218e-17 1.0
  outer loop
    vertex -6.799999999999999 0.0 1.5
    vertex -5.8 -2.0 1.5
    vertex -5.8 0.0 1.5000000000000002
  endloop
endfacet
facet normal 0.0 -1.0 -8.81239525796218e-17
  outer loop
    vertex -5.8 -2.0 1.5
    vertex -6.799999999999999 -1.9999999999999998 -1.5000000000000002
    vertex -5.8 -1.9999999999999998 -1.5000000000000002
  endloop
endfacet
facet normal 0.0 -1.0 -8.81239525796218e-17
  outer loop
    vertex -6.799999999999999 -1.9999999999999998 -1.5000000000000002
    vertex -5.8 -2.0 1.5
    vertex -6.799999999999999 -2.0 1.5
  endloop
endfacet
facet normal 8.812395257962188e-17 8.81239525796218e-17 -1.0
  outer loop
    vertex -5.8 3.524958103184872e-16 -1.5
    vertex -6.799999999999999 -1.9999999999999998 -1.5000000000000002
    vertex -6.799999999999999 3.524958103184872e-16 -1.5
  endloop
endfacet
facet normal 8.812395257962188e-17 8.81239525796218e-17 -1.0
  outer loop
    vertex -6.799999999999999 -1.9999999999999998 -1.5000000000000002
    vertex -5.8 3.524958103184872e-16 -1.5
    vertex -5.8 -1.9999999999999998 -1.5000000000000002
  endloop
endfacet
facet normal -1.553166203651088e-32 1.0 8.81239525796218e-17
  outer loop
    vertex -6.799999999999999 0.0 1.5
    vertex -5.8 3.524958103184872e-16 -1.5
    vertex -6.799999999999999 3.524958103184872e-16 -1.5
  endloop
endfacet
facet normal -1.553166203651088e-32 1.0 8.81239525796218e-17
  outer loop
    vertex -5.8 3.524958103184872e-16 -1.5
    vertex -6.799999999999999 0.0 1.5
    vertex -5.8 0.0 1.5000000000000002
  endloop
endfacet
endsolid ArduinoClamp
